/* XPM */
static char *_657047495143[] = {
/* columns rows colors chars-per-pixel */
"32 32 11 1 ",
"  c #4A3018",
". c #523C18",
"X c #524C10",
"o c #6A4418",
"O c #5F4832",
"+ c #8B5920",
"@ c #AC6520",
"# c #83674B",
"$ c #B4A973",
"% c #DBD1A6",
"& c None",
/* pixels */
"&&&&&&&&&&&&&&&&&&&&&&&&&&&&&&&&",
"&&&&&&&&&&&&&&&&&&&&&&&&&&&&&&&&",
"&&&&&&&&&&&&&&&&&&&&&&&&&&&&&&&&",
"&&&&&&&&&&&&&&&&&&&&&&&&&&&&&&&&",
"&&&&o.o@+ooX .. oo.o.X.oXX..&&&&",
"&&&&.o.o@.X...  o+o##.XXX..o&&&&",
"&&&&o+oo$oX.oO## o#$%#..o..o&&&&",
"&&&&@.o$%$.o ##OoO$%%$..oo.o&&&&",
"&&&&+o%%%%O ...o.#%%%%# ... &&&&",
"&&&&o $%$%$OO..oo@#$%$O o.. &&&&",
"&&&&.  O#$%%%O..o.o$$$.o.  .&&&&",
"&&&& .. .+$$%$o..o+#$O o  . &&&&",
"&&&&..o.@.#$$#Xoo+o.o Xoo.o &&&&",
"&&&& oo@+ooX...X.o. .X OO#O.&&&&",
"&&&&.oO##OO##O..o.o.  O###O.&&&&",
"&&&& O##OO##O.###o .. ###O..&&&&",
"&&&&  OO.+o.#$%%$# o.oO#  .o&&&&",
"&&&&. .o+oo$%%%$# .  . . ooo&&&&",
"&&&&ooo.oo$%%$$.O##..o..+@@o&&&&",
"&&&&oo. .X o.o. ##O#%$o+oXXX&&&&",
"&&&&o.$%$O.. ...+o$%%%#ooo.X&&&&",
"&&&&oo%%%%$O...oo+$$$%%#..o.&&&&",
"&&&&@.#$%%%%$.o##Oo.#$%$. .o&&&&",
"&&&&.+. #$%$O..O##.o.o##  ..&&&&",
"&&&&.     OO.o.+@@o..oX... .&&&&",
"&&&& .    . .o+@ooo ..X.. ..&&&&",
"&&&&.  . . .o+ooXXo+ .oX.ooo&&&&",
"&&&& .  .o..oo.X. Xo++o.+o..&&&&",
"&&&&&&&&&&&&&&&&&&&&&&&&&&&&&&&&",
"&&&&&&&&&&&&&&&&&&&&&&&&&&&&&&&&",
"&&&&&&&&&&&&&&&&&&&&&&&&&&&&&&&&",
"&&&&&&&&&&&&&&&&&&&&&&&&&&&&&&&&"
};
